<svg xmlns="http://www.w3.org/2000/svg" width="575" height="115" viewBox="0 0 575 115"><path d="M62.9 94.5c-1.2 1.2-1.8 2.6-2 4.2 0 0.3 0 0.7 0 1 0 0.3 0 0.7 0.1 1 0 0.4 0.1 0.7 0.2 1.1s0.2 0.7 0.4 1c0.3 0.8 0.8 1.5 1.5 2.1 0.9 0.9 1.9 1.6 3.1 1.9 0.7 0.2 1.4 0.3 2.2 0.3 2 0 3.7-0.7 5.2-2.2 0.7-0.6 1.2-1.3 1.6-2.1 0.1-0.3 0.3-0.7 0.4-1 0.1-0.3 0.2-0.7 0.2-1 0-0.3 0.1-0.7 0.1-1 0-0.3 0-0.7 0-1 -0.2-1.6-0.9-3-2.1-4.2 -1.4-1.4-3.1-2.1-5.1-2.1C66.1 92.4 64.3 93.1 62.9 94.5M75.8 54c-2.1-2.1-4.7-3.2-7.6-3.2 -3 0-5.6 1.1-7.7 3.2 -1.9 1.9-2.9 4.1-3.1 6.7 0 0.2 0 0.4 0 0.6 0 0.1 0 0.3 0 0.5 0 3 1.1 5.6 3.2 7.7 2.1 2.2 4.7 3.3 7.7 3.3 3 0 5.5-1.1 7.7-3.2C77.9 67.3 79 64.7 79 61.7c0-1.1-0.1-2.1-0.4-3C78.1 56.9 77.2 55.4 75.8 54M26.4 58.6c0 3.2 1.2 6 3.5 8.3 2.3 2.3 5.1 3.5 8.3 3.5 3.2 0 6-1.1 8.3-3.4 2.3-2.3 3.5-5.1 3.5-8.3 0-3.2-1.2-6-3.5-8.3 -2.3-2.3-5.1-3.4-8.3-3.4 -3.2 0-6 1.2-8.3 3.5C27.5 52.6 26.4 55.3 26.4 58.6M37.4 97.5c0.6 0.6 1.3 1 2.1 1.3 0 0 0.1 0.1 0.2 0.1 0.5 0.1 1 0.2 1.6 0.2 0.6 0 1.1-0.1 1.6-0.2 0.1 0 0.1 0 0.2 0 0.7-0.2 1.4-0.6 2.1-1.2 1.1-1.1 1.6-2.3 1.6-3.8 0-1.4-0.5-2.7-1.6-3.7 -1-1-2.1-1.5-3.4-1.5 -0.1 0-0.2 0-0.3 0 -0.1 0-0.3 0-0.4 0.1 -1.3 0.1-2.4 0.6-3.3 1.5 -1 1.1-1.5 2.3-1.5 3.8C35.8 95.1 36.3 96.4 37.4 97.5M46.5 38.5c2.4-2.3 3.6-5.1 3.6-8.4 0-3.3-1.2-6.1-3.5-8.5 -2.3-2.3-5.1-3.5-8.4-3.5s-6.1 1.2-8.5 3.5c-2.3 2.4-3.5 5.2-3.5 8.5 0 3.3 1.2 6.1 3.5 8.5 2.4 2.4 5.2 3.6 8.5 3.6S44.1 40.9 46.5 38.5M80.9 18c-0.6-2.1-1.7-4-3.4-5.7 -2.6-2.6-5.7-3.8-9.3-3.8 -3.6 0-6.8 1.3-9.4 3.9 -2.3 2.3-3.5 5.1-3.8 8.2 0 0.4 0 0.8 0 1.3 0 0.4 0 0.9 0.1 1.3 0.3 3.1 1.5 5.8 3.8 8.1 2.6 2.6 5.8 3.9 9.4 3.9 3.6 0 6.8-1.3 9.4-3.9 1.7-1.7 2.8-3.5 3.4-5.6 0.3-1.2 0.5-2.4 0.5-3.7C81.4 20.4 81.2 19.2 80.9 18M91.9 84.5c-1.5 1.5-2.4 3.3-2.5 5.4 0 0.3 0 0.6 0 0.9 0 0.3 0 0.6 0.1 0.9 0.2 2.1 1 3.9 2.6 5.4 0.7 0.7 1.6 1.3 2.5 1.8 1.1 0.6 2.4 0.9 3.8 0.9 1.4 0 2.7-0.3 3.9-0.8 0.9-0.4 1.7-1 2.4-1.7 1.1-1.1 1.9-2.3 2.3-3.7 0.2-0.8 0.3-1.6 0.3-2.5 0-0.9-0.1-1.7-0.3-2.4 -0.4-1.4-1.2-2.7-2.3-3.8 -1.7-1.7-3.8-2.6-6.2-2.6S93.6 82.7 91.9 84.5M108 70.6c0.2-0.9 0.4-1.8 0.4-2.8 0-2.8-1-5.2-3-7.2s-4.4-3-7.2-3c-2.8 0-5.2 1-7.2 3 -1.8 1.8-2.7 3.9-2.9 6.4 0 0.3 0 0.6 0 0.9 0 0.3 0 0.7 0.1 1 0.2 2.4 1.2 4.4 3 6.2 2 2 4.5 3.1 7.3 3.1 2.8 0 5.3-1 7.3-3C106.7 73.6 107.5 72.2 108 70.6M110.5 39.1c2.9-2.9 4.4-6.3 4.4-10.4s-1.4-7.5-4.3-10.4c-2.9-2.9-6.4-4.3-10.4-4.3 -4.1 0-7.5 1.5-10.4 4.4 -2.9 2.9-4.3 6.3-4.3 10.4s1.4 7.5 4.3 10.4c2.9 2.9 6.4 4.4 10.5 4.4C104.1 43.5 107.6 42 110.5 39.1M168 45.8c2.1 0.7 4 1.9 5.7 3.5l6.8-8c-2.8-2.4-5.7-4.1-8.8-5.1 -2.9-0.9-6.3-1.4-10.3-1.4 -2.4 0-4.7 0.3-7 0.8 -2.5 0.6-4.8 1.5-6.7 2.7 -2.2 1.3-3.8 2.9-5 4.7 -1.3 2.1-2 4.6-2 7.3 0 2.7 0.6 5 1.9 7.1 1.1 1.8 2.7 3.3 4.8 4.5 2.6 1.6 7.2 2.8 13.7 3.8 3.5 0.2 6 0.7 7.5 1.5 1.5 0.8 2.3 2 2.3 3.7 0 1.8-0.9 3.2-2.7 4.4 -1.7 1.1-3.7 1.6-6.1 1.6 -2.9-0.1-5.9-0.7-9.2-2 -3.5-1.4-6-3-7.7-4.8l-6 8.7c1.7 1.8 3.6 3.3 5.5 4.6 1.8 1.1 3.7 2 5.7 2.7 2.6 0.8 6.5 1.4 11.7 1.6 3.4 0 6.5-0.4 9.3-1.3 2.6-0.8 4.8-2 6.7-3.5 1.8-1.5 3.1-3.2 4-5.2 0.9-1.9 1.3-4 1.3-6.2 0-3.1-0.7-5.7-2-7.9 -1.2-1.9-2.8-3.5-5-4.7 -1.9-1-4.1-1.8-6.8-2.3l-7.2-0.8c-3.1-0.2-5.4-0.7-6.9-1.6 -1.5-0.9-2.2-2.1-2.2-3.7 0-1.6 0.8-2.8 2.4-3.6 1.6-0.9 3.8-1.3 6.7-1.3C163.9 44.9 166.1 45.2 168 45.8M241.2 36.2h-13.5l-9 21.6 -5.1 13.6 -12.2-35.2h-14.2l19.7 48.5 -9.2 21.4h13.4L241.2 36.2M291 41.7c-1.9-2-4.1-3.6-6.6-4.7 -2.5-1.1-5.2-1.6-8.1-1.6 -3 0-5.9 0.6-8.5 1.9 -2.5 1.2-5.1 3.1-7.6 5.6l-0.8-6.7h-10.9v49.4h12.1v-25.2c0-1.9 0.3-3.6 0.9-5.3 0.6-1.7 1.5-3.1 2.6-4.4 1.1-1.3 2.5-2.3 4-3 1.6-0.7 3.3-1.1 5.1-1.1 1.9 0 3.6 0.3 5.2 1 1.5 0.7 2.7 1.6 3.7 2.8 1 1.2 1.8 2.6 2.3 4.2 0.5 1.6 0.8 3.3 0.8 5.2v25.8h12.2v-25.9c0-3.8-0.5-7.2-1.6-10.3C294.4 46.3 292.9 43.8 291 41.7M342.5 37.2c-4.5-1.4-8-2-10.6-2l-5.6 0.6 -5 1.5c-3.1 1.3-5.8 3.1-8 5.6 -2.2 2.3-3.9 5-5.1 8.2 -1.2 3.1-1.7 6.4-1.7 10s0.6 6.9 1.8 10c1.2 3.1 2.9 5.9 5.1 8.2 2.3 2.4 5 4.2 8.1 5.5l5.1 1.6 5.7 0.5c2.7 0 6.3-0.7 10.8-2 3.1-1.3 5.8-3.1 8.1-5.5 2.2-2.3 3.9-5 5.1-8.1 1.2-3.1 1.8-6.5 1.8-10s-0.6-6.8-1.8-9.9c-1.2-3.1-2.9-5.8-5.1-8.1C348.3 40.3 345.6 38.5 342.5 37.2M331.9 46.3c2 0 3.8 0.4 5.6 1.3 1.6 0.8 3 1.9 4.2 3.3 1.2 1.4 2.1 2.9 2.7 4.7 0.6 1.7 1 3.5 1 5.4 0 1.9-0.3 3.7-0.8 5.4 -0.6 1.8-1.4 3.4-2.5 4.7 -1.2 1.4-2.6 2.5-4.2 3.2 -1.8 0.8-3.7 1.3-5.8 1.3 -2.2 0-4.1-0.4-5.8-1.2 -1.6-0.7-3-1.8-4.1-3.2 -1.1-1.3-1.9-2.8-2.5-4.6 -0.6-1.7-0.8-3.5-0.8-5.4 0-1.9 0.3-3.7 0.9-5.4 0.6-1.8 1.5-3.3 2.6-4.6 1.2-1.4 2.6-2.5 4.2-3.3C327.8 46.7 329.8 46.3 331.9 46.3M384.2 36.3v-14l-12.2 1.3v12.7h-9.2v10.5h9.2v21.3c0 3 0.4 5.7 1.3 8.1 0.8 2.3 2 4.2 3.6 5.8 1.6 1.5 3.5 2.6 5.7 3.3 2.1 0.7 4.6 1 7.3 0.9 3.5-0.1 6.8-0.8 10.1-2.1l-3.4-10.4c-2 1-4 1.5-5.9 1.5 -2 0-3.5-0.6-4.6-1.7 -1.2-1.2-1.7-2.9-1.7-5.2v-21.3h13.7v-10.5H384.2M447 36.2l-0.4 6.8c-1.4-2.4-3.5-4.4-6.4-5.8 -2.9-1.4-6-2.1-9.3-2.1 -3.6 0-7 0.5-10.1 1.6 -3.1 1.1-5.8 2.8-8.1 4.9 -2.4 2.2-4.2 4.9-5.5 8.1 -1.3 4.7-1.9 8.4-1.9 11.3 0.4 5.4 1.1 9.2 1.9 11.4 1.2 3.2 3 6 5.4 8.2 2.2 2.2 4.9 3.9 8 5 3.1 1.1 6.5 1.6 10.2 1.6 3.1-0.1 6.1-0.8 9-2.2 1.6-0.7 2.9-1.6 4.1-2.6 1.3-1.2 2.2-2.4 2.9-3.8l0.6 7.2h11.5v-49.3H447M432 45.9c2.3 0 4.4 0.4 6.3 1.3 1.7 0.8 3.2 2 4.5 3.5 1.2 1.4 2.1 3 2.7 4.8 0.6 1.8 0.9 3.6 0.9 5.5s-0.3 3.7-0.9 5.5c-0.6 1.8-1.5 3.4-2.7 4.8 -1.3 1.5-2.8 2.6-4.5 3.4 -1.9 0.9-4 1.3-6.3 1.3 -2 0-3.9-0.3-5.7-1 -1.8-0.7-3.3-1.6-4.6-2.9 -1.4-1.3-2.4-2.9-3.1-4.7 -0.8-1.9-1.1-4-1.1-6.3 0-2.3 0.4-4.4 1.2-6.3 0.7-1.8 1.7-3.4 3.1-4.7 1.3-1.3 2.9-2.2 4.7-2.8C428.1 46.2 430 45.9 432 45.9M487.2 36.3v-14l-12.2 1.3v12.7h-9.2v10.5h9.2v21.3c0 3 0.4 5.7 1.3 8.1 0.8 2.3 2 4.2 3.6 5.8 1.6 1.5 3.5 2.6 5.7 3.3 2.1 0.7 4.6 1 7.3 0.9 3.5-0.1 6.8-0.8 10.1-2.1l-3.4-10.4c-2 1-4 1.5-5.9 1.5 -2 0-3.5-0.6-4.6-1.7 -1.2-1.2-1.7-2.9-1.7-5.2v-21.3h13.7v-10.5H487.2M546 36.6c-4.6-1.3-8.3-1.9-11.1-1.9 -3.9 0-7.5 0.6-10.8 1.9 -3.2 1.3-5.9 3.1-8.2 5.4 -2.3 2.3-4 5-5.2 8.2 -1.2 3.2-1.8 6.7-1.8 10.4 0 3.9 0.6 7.5 1.9 10.8 1.2 3.2 3 6 5.4 8.3 2.3 2.3 5.2 4.1 8.5 5.3 2.2 0.8 6 1.5 11.4 1.9 2.5 0 6.3-0.7 11.5-2 1.9-0.7 3.6-1.5 5.3-2.4 1.7-1.1 3.2-2.2 4.5-3.5l-7.8-7.7c-1.3 1.4-3.3 2.5-5.9 3.4 -2.5 0.8-4.9 1.3-7.2 1.3 -2.1 0-4-0.3-5.8-0.8 -1.7-0.5-3.2-1.2-4.4-2.1 -1.3-0.9-2.3-2-3-3.3 -0.7-1.3-1.2-2.7-1.4-4.2h38.5c0.3-3.4 0.1-7.8-0.7-13.3 -0.5-1.9-1.1-3.6-1.9-5.2 -0.8-1.6-1.7-3-2.8-4.3 -1.1-1.3-2.3-2.4-3.7-3.3C549.2 38 547.6 37.2 546 36.6M526.6 47.9c1.2-0.8 2.6-1.4 4.1-1.8 1.5-0.4 3-0.6 4.7-0.6 1.8 0 3.4 0.2 4.9 0.6 1.5 0.4 2.8 1 3.9 1.8 1.1 0.8 2.1 1.8 2.8 3 0.7 1.2 1.2 2.6 1.4 4.2h-26.6c0.5-1.6 1.1-3 2-4.2C524.3 49.7 525.4 48.7 526.6 47.9z" fill="#F16322"/></svg>